<svg xmlns="http://www.w3.org/2000/svg" version="1.1" xmlns:xlink="http://www.w3.org/1999/xlink" xmlns:svgjs="http://svgjs.dev/svgjs" width="1000" height="1000" viewBox="0 0 1000 1000"><rect width="1000" height="1000" fill="#000000"></rect><g transform="matrix(0.7,0,0,0.7,149.5757575757575,381.61869386344927)"><svg viewBox="0 0 396 134" data-background-color="#111111" preserveAspectRatio="xMidYMid meet" height="338" width="1000" xmlns="http://www.w3.org/2000/svg" xmlns:xlink="http://www.w3.org/1999/xlink"><g id="tight-bounds" transform="matrix(1,0,0,1,0.24000000000003752,0.04604827682928203)"><svg viewBox="0 0 395.5199999999999 133.90790344634146" height="133.90790344634146" width="395.5199999999999"><g><svg viewBox="0 0 646.9449751960306 219.0307576700188" height="133.90790344634146" width="395.5199999999999"><g><rect width="10.921392059145107" height="219.0307576700188" x="424.1100315684427" y="0" fill="#ffffff" opacity="1" stroke-width="0" stroke="transparent" fill-opacity="1" class="rect-uu-0" data-fill-palette-color="primary" rx="1%" id="uu-0" data-palette-color="#ffffff"></rect></g><g transform="matrix(1,0,0,1,0,18.25256313916823)"><svg viewBox="0 0 395.52000000000004 182.52563139168234" height="182.52563139168234" width="395.52000000000004"><g><svg viewBox="0 0 395.52000000000004 182.52563139168234" height="182.52563139168234" width="395.52000000000004"><g><svg viewBox="0 0 395.52000000000004 121.10520158102767" height="121.10520158102767" width="395.52000000000004"><g transform="matrix(1,0,0,1,0,0)"><svg width="395.52000000000004" viewBox="0 -50.34 185.29 56.74" height="121.10520158102767" data-palette-color="#ffffff"><path d="M21.85-37.4L21.85-37.4Q23.36-37.4 25.01-37.05 26.66-36.69 28.03-35.73 29.39-34.77 30.27-33.06 31.15-31.35 31.15-28.66L31.15-28.66Q31.15-26.17 30.58-24.3 30-22.44 29.05-21.08 28.1-19.73 26.87-18.85 25.63-17.97 24.32-17.44 23-16.92 21.68-16.71 20.36-16.5 19.24-16.5L19.24-16.5Q17.63-16.5 16.48-16.66 15.33-16.82 14.55-17.04L14.55-17.04Q14.58-15.8 14.59-14.47 14.6-13.13 14.61-11.95 14.62-10.77 14.64-9.85 14.65-8.94 14.65-8.54L14.65-8.54Q14.67-7.69 14.75-6.41 14.82-5.13 14.98-3.76 15.14-2.39 15.39-1.09 15.65 0.22 16.04 1.1L16.04 1.1Q16.46 2.03 17.11 2.69 17.77 3.34 18.54 3.78 19.31 4.22 20.14 4.49 20.97 4.76 21.75 4.91L21.75 4.91Q22.14 4.98 22.55 5.04 22.95 5.1 23.27 5.19 23.58 5.27 23.79 5.41 24 5.54 24 5.76L24 5.76Q24 6.05 23.75 6.23 23.51 6.4 22.75 6.4L22.75 6.4Q21.97 6.4 20.78 6.16 19.58 5.93 18.1 5.65 16.63 5.37 14.97 5.14 13.31 4.91 11.65 4.91L11.65 4.91Q9.84 4.91 8.24 5.1 6.64 5.3 5.38 5.53 4.13 5.76 3.25 5.96 2.37 6.15 2 6.15L2 6.15Q1.9 6.15 1.77 6.14 1.64 6.13 1.5 6.08 1.37 6.03 1.28 5.93 1.2 5.83 1.2 5.64L1.2 5.64Q1.2 5.37 1.53 5.2 1.86 5.03 2.4 4.86 2.95 4.69 3.65 4.46 4.35 4.22 5.05 3.86L5.05 3.86Q6.45 3.1 7.15 1.88 7.86 0.66 8.2-0.95L8.2-0.95Q8.35-1.68 8.51-3.08 8.67-4.47 8.81-6.26 8.96-8.06 9.09-10.12 9.23-12.18 9.33-14.25 9.42-16.31 9.48-18.23 9.55-20.14 9.55-21.66L9.55-21.66Q9.55-24.63 9.38-26.9 9.2-29.17 8.64-30.44L8.64-30.44Q8.2-31.45 7.46-32.04 6.71-32.64 5.82-32.96 4.93-33.28 3.96-33.39 2.98-33.5 2.05-33.54L2.05-33.54Q0.83-33.57 0.42-33.73 0-33.89 0-34.35L0-34.35Q0-35.06 1.25-35.06L1.25-35.06Q1.78-35.06 2.95-34.99 4.13-34.91 5.76-34.91L5.76-34.91Q6.96-34.91 8.37-34.99 9.79-35.06 11.3-35.25L11.3-35.25Q12.57-35.4 13.56-35.63 14.55-35.86 15.39-36.1 16.24-36.33 16.97-36.56 17.7-36.79 18.46-36.99 19.21-37.18 20.03-37.29 20.85-37.4 21.85-37.4ZM14.84-29.96L14.84-29.96Q14.75-28.93 14.7-27.6 14.65-26.27 14.61-24.76 14.58-23.24 14.56-21.61 14.55-19.97 14.55-18.36L14.55-18.36Q15.33-18.12 16.31-18.01 17.29-17.9 18.65-17.9L18.65-17.9Q20.48-17.9 21.77-18.77 23.05-19.65 23.84-21.11 24.63-22.56 24.99-24.4 25.34-26.25 25.34-28.15L25.34-28.15Q25.34-29.71 25.06-31.18 24.78-32.64 24.15-33.75 23.51-34.86 22.44-35.53 21.36-36.21 19.8-36.21L19.8-36.21Q18.58-36.21 17.7-35.77 16.82-35.33 16.24-34.51 15.65-33.69 15.32-32.53 14.99-31.37 14.84-29.96ZM40.45-31.15L40.45-31.15Q40.45-30.86 40.43-30.33 40.4-29.81 40.4-29.25L40.4-29.25Q40.4-28.54 40.49-27.75 40.57-26.95 40.71-26.28 40.84-25.61 40.98-25.16 41.11-24.71 41.21-24.71L41.21-24.71Q41.31-24.71 41.49-25.42 41.67-26.12 42.03-27.2 42.38-28.27 42.94-29.5 43.5-30.74 44.38-31.81 45.26-32.89 46.49-33.59 47.73-34.3 49.41-34.3L49.41-34.3Q50.97-34.3 52.04-33.76 53.1-33.23 53.73-32.42 54.37-31.62 54.64-30.68 54.9-29.74 54.9-28.91L54.9-28.91Q54.9-27.61 54.56-26.65 54.22-25.68 53.65-25.05 53.07-24.41 52.34-24.08 51.61-23.75 50.85-23.75L50.85-23.75Q49.46-23.75 48.58-24.41 47.7-25.07 47.7-26.34L47.7-26.34Q47.7-27.03 47.89-27.51 48.07-28 48.37-28.34 48.68-28.69 49.11-28.92 49.53-29.15 50.05-29.3L50.05-29.3Q51.1-29.61 51.47-30.08 51.85-30.54 51.85-31.15L51.85-31.15Q51.85-31.52 51.72-31.86 51.58-32.2 51.28-32.48 50.97-32.76 50.5-32.93 50.02-33.11 49.34-33.11L49.34-33.11Q47.95-33.11 46.9-32.46 45.85-31.81 45.07-30.73 44.28-29.64 43.77-28.22 43.26-26.81 42.94-25.26 42.62-23.71 42.49-22.13 42.36-20.56 42.36-19.19L42.36-19.19Q42.36-17.94 42.45-16.49 42.55-15.04 42.71-13.57 42.87-12.11 43.06-10.72 43.26-9.33 43.44-8.18 43.63-7.03 43.77-6.2 43.92-5.37 43.99-5.05L43.99-5.05Q44.26-3.96 44.83-3.53 45.41-3.1 46.36-3.1L46.36-3.1Q46.77-3.1 47.23-3.13 47.68-3.15 47.9-3.15L47.9-3.15Q48.56-3.15 48.56-2.66L48.56-2.66Q48.56-2.27 48.19-2.15L48.19-2.15Q47.9-2.03 47.15-2 46.41-1.98 45.42-1.95 44.43-1.93 43.28-1.88 42.14-1.83 41.06-1.71L41.06-1.71Q39.87-1.56 38.74-1.31 37.62-1.05 36.67-0.82 35.72-0.59 34.98-0.42 34.25-0.24 33.81-0.24L33.81-0.24Q33.35-0.24 33.18-0.44 33.01-0.63 33.01-0.85L33.01-0.85Q33.01-1.22 33.31-1.38 33.62-1.54 34.15-1.71L34.15-1.71Q34.57-1.83 35.14-1.97 35.72-2.1 36.5-2.44L36.5-2.44Q37.28-2.78 37.58-3.36 37.89-3.93 37.89-5.1L37.89-5.1Q37.89-5.47 37.84-6.34 37.79-7.2 37.71-8.4 37.62-9.59 37.51-11.02 37.4-12.45 37.28-13.95 37.16-15.45 37.02-16.94 36.89-18.43 36.77-19.74 36.64-21.04 36.53-22.07 36.42-23.1 36.35-23.71L36.35-23.71Q36.25-24.44 36.06-24.87 35.86-25.29 35.59-25.51 35.32-25.73 34.97-25.79 34.62-25.85 34.2-25.85L34.2-25.85 33.2-25.85Q33.08-25.85 32.9-25.87 32.71-25.88 32.54-25.94 32.37-26 32.26-26.12 32.15-26.25 32.15-26.44L32.15-26.44Q32.15-26.71 32.37-26.83 32.59-26.95 32.91-27L32.91-27Q34.13-27.15 35.12-27.42 36.11-27.69 37.06-28.39L37.06-28.39Q37.64-28.86 38.29-29.63 38.94-30.4 39.35-31.25L39.35-31.25Q39.65-31.86 39.99-31.86L39.99-31.86Q40.31-31.86 40.38-31.62 40.45-31.37 40.45-31.15ZM51.9-14.99L51.9-14.99Q51.9-17.72 52.75-19.93 53.61-22.14 55.17-23.71 56.73-25.27 58.94-26.11 61.15-26.95 63.84-26.95L63.84-26.95Q66.25-26.95 68.29-26.15 70.33-25.34 71.82-23.84 73.31-22.34 74.15-20.2 75-18.07 75-15.41L75-15.41Q75-12.26 73.96-10.01 72.92-7.76 71.3-6.32 69.67-4.88 67.67-4.21 65.67-3.54 63.74-3.54L63.74-3.54Q61.42-3.54 59.28-4.31 57.15-5.08 55.51-6.54 53.88-8.01 52.89-10.14 51.9-12.28 51.9-14.99ZM63.5-26L63.5-26Q62.1-26 61.09-25.31 60.08-24.61 59.42-23.43 58.76-22.24 58.45-20.67 58.15-19.09 58.15-17.36L58.15-17.36Q58.15-15.92 58.32-14.45 58.49-12.99 58.85-11.63 59.2-10.28 59.72-9.09 60.25-7.91 60.98-7.03 61.71-6.15 62.65-5.65 63.59-5.15 64.74-5.15L64.74-5.15Q66.23-5.15 67.24-5.82 68.26-6.49 68.87-7.58 69.48-8.67 69.73-10.02 69.99-11.38 69.99-12.74L69.99-12.74Q69.99-16.11 69.5-18.6 69.01-21.09 68.13-22.74 67.26-24.39 66.07-25.2 64.89-26 63.5-26ZM89.54-24.19L89.54-24.19Q89.54-24 89.34-23.82 89.13-23.63 88.85-23.46 88.57-23.29 88.26-23.11 87.96-22.92 87.74-22.75L87.74-22.75Q87.32-22.36 87.19-21.9 87.05-21.44 87.05-20.95L87.05-20.95Q87.05-20.39 87.3-19.19 87.54-17.99 87.93-16.54 88.32-15.09 88.77-13.55 89.23-12.01 89.64-10.74 90.06-9.47 90.37-8.67 90.69-7.86 90.79-7.86L90.79-7.86Q90.91-7.86 91.25-8.62 91.59-9.38 92.08-10.57 92.57-11.77 93.14-13.27 93.72-14.77 94.29-16.26 94.87-17.75 95.4-19.07 95.94-20.39 96.33-21.24L96.33-21.24Q96.5-21.58 96.67-21.79 96.84-22 97.04-22L97.04-22Q97.26-22 97.43-21.79 97.6-21.58 97.8-21.24L97.8-21.24Q98.21-20.46 98.78-19.35 99.36-18.24 99.99-17.02 100.63-15.8 101.26-14.59 101.9-13.38 102.43-12.41 102.97-11.45 103.35-10.85 103.73-10.25 103.85-10.25L103.85-10.25Q103.95-10.25 104.2-11 104.46-11.74 104.75-12.89 105.05-14.04 105.38-15.43 105.71-16.82 105.97-18.09 106.24-19.36 106.41-20.35 106.58-21.34 106.58-21.7L106.58-21.7Q106.58-22.14 106.43-22.35 106.27-22.56 105.85-22.56L105.85-22.56Q105.51-22.56 105.05-22.49 104.58-22.41 104.09-22.41L104.09-22.41Q103.8-22.41 103.67-22.53 103.53-22.66 103.53-22.8L103.53-22.8Q103.53-23 103.64-23.1 103.75-23.19 103.9-23.24L103.9-23.24Q104.31-23.36 105.38-23.4 106.44-23.44 108.1-23.75L108.1-23.75Q109.83-24.05 110.93-24.43 112.03-24.8 112.64-24.8L112.64-24.8Q113.2-24.8 113.2-24.39L113.2-24.39Q113.2-24.05 112.79-23.9L112.79-23.9Q112.42-23.75 111.85-23.6 111.27-23.44 110.59-23.19L110.59-23.19Q110.08-23.02 109.72-22.8 109.37-22.58 109.11-22.28 108.85-21.97 108.66-21.53 108.46-21.09 108.29-20.51L108.29-20.51Q108.12-19.97 107.85-18.95 107.59-17.92 107.24-16.6 106.9-15.28 106.49-13.78 106.07-12.28 105.64-10.78 105.22-9.28 104.78-7.9 104.34-6.52 103.91-5.47 103.48-4.42 103.11-3.78 102.73-3.15 102.43-3.15L102.43-3.15Q102.12-3.15 101.63-3.65 101.14-4.15 100.57-4.96 99.99-5.76 99.35-6.8 98.7-7.84 98.09-8.91L98.09-8.91Q96.62-11.45 94.99-14.7L94.99-14.7Q94.94-14.53 94.68-13.83 94.43-13.13 94.07-12.17 93.72-11.21 93.3-10.1 92.89-8.98 92.51-7.98 92.13-6.98 91.83-6.2 91.52-5.42 91.4-5.1L91.4-5.1Q91.01-4.08 90.56-2.99 90.1-1.9 89.67-0.99 89.23-0.07 88.86 0.51 88.49 1.1 88.25 1.1L88.25 1.1Q88.01 1.1 87.59 0.39 87.18-0.32 86.66-1.49 86.15-2.66 85.58-4.19 85-5.71 84.42-7.36 83.83-9.01 83.27-10.63 82.71-12.26 82.24-13.65 81.78-15.04 81.43-16.06 81.07-17.09 80.9-17.5L80.9-17.5Q80.58-18.26 80.12-18.53 79.66-18.8 79.09-18.8L79.09-18.8Q78.48-18.8 77.93-18.65 77.39-18.51 76.95-18.51L76.95-18.51Q76.73-18.51 76.51-18.63 76.29-18.75 76.29-19.04L76.29-19.04Q76.29-19.46 76.6-19.63 76.92-19.8 77.43-19.95L77.43-19.95Q77.87-20.04 78.57-20.21 79.26-20.39 80.1-20.62 80.93-20.85 81.82-21.14 82.71-21.44 83.49-21.8L83.49-21.8Q84.73-22.36 85.66-22.88 86.59-23.39 87.25-23.79 87.91-24.19 88.36-24.43 88.81-24.66 89.1-24.66L89.1-24.66Q89.3-24.66 89.42-24.55 89.54-24.44 89.54-24.19ZM113.34-14.99L113.34-14.99Q113.34-17.72 114.2-19.93 115.05-22.14 116.62-23.71 118.18-25.27 120.39-26.11 122.6-26.95 125.28-26.95L125.28-26.95Q127.7-26.95 129.74-26.15 131.78-25.34 133.27-23.84 134.76-22.34 135.6-20.2 136.44-18.07 136.44-15.41L136.44-15.41Q136.44-12.26 135.4-10.01 134.37-7.76 132.74-6.32 131.12-4.88 129.12-4.21 127.11-3.54 125.19-3.54L125.19-3.54Q122.87-3.54 120.73-4.31 118.59-5.08 116.96-6.54 115.32-8.01 114.33-10.14 113.34-12.28 113.34-14.99ZM124.94-26L124.94-26Q123.55-26 122.54-25.31 121.52-24.61 120.86-23.43 120.2-22.24 119.9-20.67 119.59-19.09 119.59-17.36L119.59-17.36Q119.59-15.92 119.77-14.45 119.94-12.99 120.29-11.63 120.64-10.28 121.17-9.09 121.69-7.91 122.43-7.03 123.16-6.15 124.1-5.65 125.04-5.15 126.19-5.15L126.19-5.15Q127.68-5.15 128.69-5.82 129.7-6.49 130.31-7.58 130.92-8.67 131.18-10.02 131.44-11.38 131.44-12.74L131.44-12.74Q131.44-16.11 130.95-18.6 130.46-21.09 129.58-22.74 128.7-24.39 127.52-25.2 126.33-26 124.94-26ZM145.98-31.15L145.98-31.15Q145.98-30.86 145.96-30.33 145.93-29.81 145.93-29.25L145.93-29.25Q145.93-28.54 146.02-27.75 146.11-26.95 146.24-26.28 146.37-25.61 146.51-25.16 146.64-24.71 146.74-24.71L146.74-24.71Q146.84-24.71 147.02-25.42 147.2-26.12 147.56-27.2 147.91-28.27 148.47-29.5 149.04-30.74 149.91-31.81 150.79-32.89 152.03-33.59 153.26-34.3 154.94-34.3L154.94-34.3Q156.51-34.3 157.57-33.76 158.63-33.23 159.26-32.42 159.9-31.62 160.17-30.68 160.44-29.74 160.44-28.91L160.44-28.91Q160.44-27.61 160.09-26.65 159.75-25.68 159.18-25.05 158.61-24.41 157.87-24.08 157.14-23.75 156.38-23.75L156.38-23.75Q154.99-23.75 154.11-24.41 153.23-25.07 153.23-26.34L153.23-26.34Q153.23-27.03 153.42-27.51 153.6-28 153.91-28.34 154.21-28.69 154.64-28.92 155.07-29.15 155.58-29.3L155.58-29.3Q156.63-29.61 157.01-30.08 157.38-30.54 157.38-31.15L157.38-31.15Q157.38-31.52 157.25-31.86 157.12-32.2 156.81-32.48 156.51-32.76 156.03-32.93 155.55-33.11 154.87-33.11L154.87-33.11Q153.48-33.11 152.43-32.46 151.38-31.81 150.6-30.73 149.82-29.64 149.3-28.22 148.79-26.81 148.47-25.26 148.16-23.71 148.02-22.13 147.89-20.56 147.89-19.19L147.89-19.19Q147.89-17.94 147.99-16.49 148.08-15.04 148.24-13.57 148.4-12.11 148.6-10.72 148.79-9.33 148.97-8.18 149.16-7.03 149.3-6.2 149.45-5.37 149.52-5.05L149.52-5.05Q149.79-3.96 150.37-3.53 150.94-3.1 151.89-3.1L151.89-3.1Q152.31-3.1 152.76-3.13 153.21-3.15 153.43-3.15L153.43-3.15Q154.09-3.15 154.09-2.66L154.09-2.66Q154.09-2.27 153.72-2.15L153.72-2.15Q153.43-2.03 152.69-2 151.94-1.98 150.95-1.95 149.96-1.93 148.82-1.88 147.67-1.83 146.59-1.71L146.59-1.71Q145.4-1.56 144.27-1.31 143.15-1.05 142.2-0.82 141.25-0.59 140.51-0.42 139.78-0.24 139.34-0.24L139.34-0.24Q138.88-0.24 138.71-0.44 138.54-0.63 138.54-0.85L138.54-0.85Q138.54-1.22 138.84-1.38 139.15-1.54 139.68-1.71L139.68-1.71Q140.1-1.83 140.67-1.97 141.25-2.1 142.03-2.44L142.03-2.44Q142.81-2.78 143.11-3.36 143.42-3.93 143.42-5.1L143.42-5.1Q143.42-5.47 143.37-6.34 143.32-7.2 143.24-8.4 143.15-9.59 143.04-11.02 142.93-12.45 142.81-13.95 142.69-15.45 142.55-16.94 142.42-18.43 142.3-19.74 142.18-21.04 142.07-22.07 141.96-23.1 141.88-23.71L141.88-23.71Q141.78-24.44 141.59-24.87 141.39-25.29 141.13-25.51 140.86-25.73 140.5-25.79 140.15-25.85 139.73-25.85L139.73-25.85 138.73-25.85Q138.61-25.85 138.43-25.87 138.24-25.88 138.07-25.94 137.9-26 137.79-26.12 137.68-26.25 137.68-26.44L137.68-26.44Q137.68-26.71 137.9-26.83 138.12-26.95 138.44-27L138.44-27Q139.66-27.15 140.65-27.42 141.64-27.69 142.59-28.39L142.59-28.39Q143.18-28.86 143.82-29.63 144.47-30.4 144.88-31.25L144.88-31.25Q145.18-31.86 145.52-31.86L145.52-31.86Q145.84-31.86 145.91-31.62 145.98-31.37 145.98-31.15ZM165.98 5.44L165.98 5.44Q164.73 5.44 163.44 5.54 162.14 5.64 160.96 5.77 159.78 5.91 158.8 6.01 157.82 6.1 157.19 6.1L157.19 6.1Q156.7 6.1 156.52 5.93 156.33 5.76 156.33 5.49L156.33 5.49Q156.33 4.91 157.19 4.91L157.19 4.91Q158.24 4.91 158.94 4.75 159.65 4.59 160.19 4.39L160.19 4.39Q161.29 3.98 161.9 3.17 162.51 2.37 162.78 1.37 163.05 0.37 163.1-0.76 163.14-1.88 163.14-2.91L163.14-2.91Q163.14-4.32 163.13-6.02 163.12-7.71 163.08-9.53 163.05-11.35 163.02-13.2 163-15.04 162.96-16.76 162.92-18.48 162.89-19.98 162.85-21.48 162.83-22.61L162.83-22.61Q162.8-24.02 162.78-25.68 162.75-27.34 162.72-29.06 162.68-30.79 162.64-32.5 162.61-34.2 162.55-35.69 162.49-37.18 162.41-38.37 162.34-39.55 162.24-40.26L162.24-40.26Q162.09-41.26 161.73-41.87 161.36-42.48 160.89-42.81 160.41-43.14 159.84-43.25 159.26-43.36 158.68-43.36L158.68-43.36Q157.82-43.36 156.87-43.23 155.92-43.09 155.14-43.09L155.14-43.09Q154.5-43.09 154.22-43.25 153.94-43.41 153.94-43.75L153.94-43.75Q153.94-44.04 154.16-44.21 154.38-44.38 154.67-44.46L154.67-44.46Q155.94-44.73 157-45 158.07-45.26 158.97-45.57 159.87-45.87 160.67-46.24 161.46-46.61 162.24-47.09L162.24-47.09Q163.1-47.63 163.69-48.22 164.29-48.8 164.72-49.27 165.15-49.73 165.45-50.04 165.76-50.34 166.03-50.34L166.03-50.34Q166.37-50.34 166.48-50.01 166.59-49.68 166.59-49.34L166.59-49.34Q166.59-48.95 166.56-48.3 166.54-47.66 166.51-46.9 166.49-46.14 166.46-45.37 166.44-44.6 166.44-43.99L166.44-43.99Q166.44-43.04 166.48-41.38 166.51-39.72 166.57-37.63 166.64-35.55 166.71-33.18 166.78-30.81 166.87-28.44 166.95-26.07 167.04-23.84 167.12-21.61 167.21-19.79 167.29-17.97 167.37-16.71 167.44-15.45 167.49-15.04L167.49-15.04Q168.47-16.06 169.22-16.82 169.98-17.58 170.61-18.27 171.25-18.97 171.87-19.69 172.49-20.41 173.23-21.34L173.23-21.34Q173.64-21.9 173.84-22.36 174.03-22.83 174.03-23.24L174.03-23.24Q174.03-24.22 172.98-24.76L172.98-24.76 170.98-25.71Q170.49-25.98 170.49-26.39L170.49-26.39Q170.49-26.64 170.61-26.82 170.74-27 171.08-27L171.08-27Q171.37-27 171.74-26.81 172.1-26.61 172.69-26.34 173.28-26.07 174.11-25.76 174.94-25.44 176.13-25.2L176.13-25.2Q176.6-25.1 177.24-25.02 177.89-24.95 178.57-24.89 179.26-24.83 179.9-24.79 180.55-24.76 180.99-24.76L180.99-24.76Q181.5-24.76 181.8-24.62 182.09-24.49 182.09-24.15L182.09-24.15Q182.09-23.88 181.82-23.69 181.55-23.51 180.89-23.51L180.89-23.51Q180.26-23.51 179.64-23.46 179.01-23.41 178.4-23.27 177.79-23.12 177.18-22.83 176.57-22.53 175.94-22.05L175.94-22.05Q175.55-21.75 175.02-21.28 174.5-20.8 173.97-20.25 173.45-19.7 172.96-19.13 172.47-18.55 172.13-18.04L172.13-18.04Q172.2-17.5 172.48-16.32 172.76-15.14 173.25-13.66 173.74-12.18 174.46-10.61 175.18-9.03 176.11-7.74 177.04-6.45 178.21-5.6 179.38-4.76 180.77-4.76L180.77-4.76Q182.07-4.76 182.85-5.69 183.63-6.62 183.63-8.15L183.63-8.15Q183.63-8.81 183.46-9.44 183.29-10.06 183.02-10.62 182.75-11.18 182.38-11.66 182.02-12.13 181.63-12.5L181.63-12.5Q181.33-12.79 181.03-13.02 180.72-13.26 180.72-13.4L180.72-13.4Q180.72-13.6 180.99-13.6L180.99-13.6Q181.28-13.6 181.81-13.29 182.33-12.99 182.77-12.6L182.77-12.6Q183.26-12.21 183.71-11.66 184.16-11.11 184.52-10.4 184.87-9.69 185.08-8.83 185.29-7.96 185.29-6.91L185.29-6.91Q185.29-6.15 185.06-5.13 184.82-4.1 184.23-3.16 183.63-2.22 182.55-1.56 181.48-0.9 179.79-0.9L179.79-0.9Q177.52-0.9 175.75-1.97 173.98-3.03 172.63-4.86 171.27-6.69 170.3-9.13 169.32-11.57 168.64-14.31L168.64-14.31 167.64-13.21Q167.69-12.01 167.77-10.62 167.86-9.23 167.98-7.82 168.1-6.42 168.22-5.08 168.34-3.74 168.45-2.61 168.56-1.49 168.66-0.67 168.76 0.15 168.83 0.49L168.83 0.49Q168.98 1.29 169.21 1.93 169.44 2.56 169.83 3 170.22 3.44 170.83 3.67 171.44 3.91 172.37 3.91L172.37 3.91Q172.79 3.91 173.26 3.88 173.74 3.86 174.18 3.86L174.18 3.86Q174.5 3.86 174.81 3.89 175.13 3.93 175.38 4.03 175.62 4.13 175.78 4.3 175.94 4.47 175.94 4.76L175.94 4.76Q175.94 5.2 175.49 5.53 175.03 5.86 173.69 5.86L173.69 5.86Q173.01 5.86 172.34 5.8 171.66 5.74 170.8 5.65 169.93 5.57 168.77 5.51 167.61 5.44 165.98 5.44Z" opacity="1" transform="matrix(1,0,0,1,0,0)" fill="#ffffff" class="undefined-text-0" data-fill-palette-color="primary" id="text-0"></path></svg></g></svg></g><g transform="matrix(1,0,0,1,163.31020800000002,149.69523314947037)"><svg viewBox="0 0 232.20979200000002 32.830398242211984" height="32.830398242211984" width="232.20979200000002"><g transform="matrix(1,0,0,1,0,0)"><svg width="232.20979200000002" viewBox="0.3 -37.5 271.21999999999997 38.35" height="32.830398242211984" data-palette-color="#ffffff"><path d="M16-19.15L11.9 0 4.7 0 11.5-31.8 18.9-32.8 16.55-21.7 16.85-21.7Q19.65-21.7 21.85-24.25 24.05-26.8 24.05-29.8L24.05-29.8Q24.05-32.3 22.33-33.75 20.6-35.2 17.45-35.2L17.45-35.2Q12.2-35.2 8.58-31.85 4.95-28.5 4.95-23.05L4.95-23.05Q4.95-22.1 5.08-21.4 5.2-20.7 5.5-20.05L5.5-20.05Q5.6-19.85 5.63-19.78 5.65-19.7 5.65-19.65L5.65-19.65Q2.95-19.65 1.63-20.8 0.3-21.95 0.3-24.25L0.3-24.25Q0.3-26.95 2.02-29.55 3.75-32.15 6.8-34.1L6.8-34.1Q9.3-35.75 12.33-36.63 15.35-37.5 18.45-37.5L18.45-37.5Q23.35-37.5 26.23-35.3 29.1-33.1 29.1-29.55L29.1-29.55Q29.1-27.2 27.75-25.05 26.4-22.9 24.1-21.6L24.1-21.6Q26.95-21.05 28.48-18.93 30-16.8 30-13.55L30-13.55Q30-11.2 29.3-8.6 28.6-6 27.35-4L27.35-4Q25.85-1.6 23.75-0.38 21.65 0.85 19.05 0.85L19.05 0.85Q16.7 0.85 15.4-0.1 14.1-1.05 14.1-2.85L14.1-2.85Q14.1-3.45 14.25-4.17 14.4-4.9 14.75-5.75L14.75-5.75Q15.7-4.8 16.48-4.38 17.25-3.95 18.1-3.95L18.1-3.95Q20.35-3.95 21.7-6.55 23.05-9.15 23.05-12.95L23.05-12.95Q23.05-16.1 21.85-17.7 20.65-19.3 18.3-19.3L18.3-19.3Q17.95-19.3 17.28-19.25 16.6-19.2 16-19.15L16-19.15ZM50.1-20.65L50.1-20.65Q50.1-16.5 46.7-13.43 43.3-10.35 38.6-10.1L38.6-10.1Q38.55-9.25 38.52-8.83 38.5-8.4 38.5-8.1L38.5-8.1Q38.5-5.8 39.27-4.85 40.05-3.9 42.1-3.9L42.1-3.9Q44.45-3.9 46.42-4.98 48.4-6.05 50.95-8.95L50.95-8.95 52.65-8.95Q49.75-4.25 46.35-1.98 42.95 0.3 38.9 0.3L38.9 0.3Q35.05 0.3 33.07-1.7 31.1-3.7 31.1-7.65L31.1-7.65Q31.1-10.5 32-13.7 32.9-16.9 34.4-19.4L34.4-19.4Q36.25-22.4 38.82-23.93 41.4-25.45 44.6-25.45L44.6-25.45Q47.35-25.45 48.72-24.28 50.1-23.1 50.1-20.65ZM45-22.8L45-22.8Q43.3-22.8 41.57-19.78 39.85-16.75 39-12.5L39-12.5Q41.9-12.7 44.07-15.18 46.25-17.65 46.25-20.75L46.25-20.75Q46.25-21.8 45.95-22.3 45.65-22.8 45-22.8ZM76.74-14.25L73.69 0 66.49 0 73.29-31.8 80.69-32.8 77.14-16.1Q80.64-16.4 83.27-20.2 85.89-24 85.89-28.4L85.89-28.4Q85.89-31.6 84.27-33.4 82.64-35.2 79.69-35.2L79.69-35.2Q73.59-35.2 70.17-31.98 66.74-28.75 66.74-23.05L66.74-23.05Q66.74-22.1 66.87-21.4 66.99-20.7 67.29-20.05L67.29-20.05Q67.39-19.85 67.42-19.78 67.44-19.7 67.44-19.65L67.44-19.65Q64.64-19.65 63.37-20.83 62.09-22 62.09-24.5L62.09-24.5Q62.09-27 63.77-29.5 65.44-32 68.44-34L68.44-34Q70.99-35.65 73.92-36.58 76.84-37.5 79.64-37.5L79.64-37.5Q85.14-37.5 88.29-34.8 91.44-32.1 91.44-27.65L91.44-27.65Q91.44-25 90.27-22.45 89.09-19.9 86.99-18L86.99-18Q84.99-16.15 82.44-15.2 79.89-14.25 76.99-14.25L76.99-14.25 76.74-14.25ZM99.74-19L95.74 0 88.54 0 93.84-25 101.04-25 100.39-21.9Q102.59-23.75 103.87-24.38 105.14-25 106.44-25L106.44-25Q107.99-25 108.94-23.93 109.89-22.85 109.89-21.25L109.89-21.25Q109.89-19.7 108.89-18.65 107.89-17.6 106.29-17.6L106.29-17.6Q105.44-17.6 104.97-18 104.49-18.4 104.29-19.65L104.29-19.65Q104.14-20.45 103.94-20.68 103.74-20.9 103.39-20.9L103.39-20.9Q102.54-20.9 101.79-20.55 101.04-20.2 99.74-19L99.74-19ZM108.39-7.7L108.39-7.7Q108.39-10.55 109.31-13.75 110.24-16.95 111.84-19.45L111.84-19.45Q113.69-22.4 116.29-23.93 118.89-25.45 122.09-25.45L122.09-25.45Q125.29-25.45 126.89-23.45 128.49-21.45 128.49-17.45L128.49-17.45Q128.59-17.4 128.71-17.38 128.84-17.35 129.04-17.35L129.04-17.35Q130.59-17.35 132.74-18.2 134.89-19.05 136.74-20.35L136.74-20.35 137.19-19Q135.79-17.5 133.46-16.4 131.14-15.3 128.34-14.85L128.34-14.85Q127.74-8.1 124.44-3.95 121.14 0.2 116.39 0.2L116.39 0.2Q112.49 0.2 110.44-1.8 108.39-3.8 108.39-7.7ZM122.49-22.4L122.49-22.4Q120.09-22.4 117.96-17.55 115.84-12.7 115.84-8.35L115.84-8.35Q115.84-6 116.36-5.15 116.89-4.3 118.39-4.3L118.39-4.3Q120.24-4.3 121.91-7.3 123.59-10.3 124.19-14.7L124.19-14.7Q123.49-14.85 123.16-15.38 122.84-15.9 122.84-16.8L122.84-16.8Q122.84-17.75 123.24-18.45 123.64-19.15 124.39-19.5L124.39-19.5Q124.29-21.1 123.86-21.75 123.44-22.4 122.49-22.4ZM139.19-8.45L139.19-8.45Q139.19-6.5 139.74-5.53 140.29-4.55 141.69-4.55L141.69-4.55Q142.94-4.55 144.14-5.73 145.34-6.9 145.79-8.7L145.79-8.7 145.79-8.95 148.24-20.4Q148.09-21.2 147.56-21.68 147.04-22.15 146.19-22.15L146.19-22.15Q143.44-22.15 141.31-17.55 139.19-12.95 139.19-8.45ZM148.69-22.7L148.69-22.7 148.69-22.5 151.14-34 158.54-35 152.79-8Q152.69-7.55 152.64-7.18 152.59-6.8 152.59-6.4L152.59-6.4Q152.59-5.4 153.06-4.98 153.54-4.55 154.64-4.55L154.64-4.55Q155.94-4.55 156.99-5.7 158.04-6.85 158.69-8.95L158.69-8.95 160.79-8.95Q159.24-4.5 156.76-2.25 154.29 0 150.74 0L150.74 0Q148.69 0 147.41-1.13 146.14-2.25 145.84-4.3L145.84-4.3Q144.34-2 142.49-0.85 140.64 0.3 138.44 0.3L138.44 0.3Q135.34 0.3 133.56-1.8 131.79-3.9 131.79-7.75L131.79-7.75Q131.79-10.55 132.64-13.6 133.49-16.65 134.99-19.15L134.99-19.15Q136.84-22.1 139.29-23.68 141.74-25.25 144.64-25.25L144.64-25.25Q146.59-25.25 147.64-24.58 148.69-23.9 148.69-22.7ZM167.03-4.55L167.03-4.55Q168.33-4.55 169.36-5.68 170.38-6.8 171.03-8.95L171.03-8.95 174.43-25 181.63-25 178.03-8Q177.93-7.55 177.88-7.18 177.83-6.8 177.83-6.4L177.83-6.4Q177.83-5.4 178.31-4.98 178.78-4.55 179.88-4.55L179.88-4.55Q181.18-4.55 182.23-5.7 183.28-6.85 183.93-8.95L183.93-8.95 186.03-8.95Q184.43-4.35 181.88-2.02 179.33 0.3 175.98 0.3L175.98 0.3Q173.83 0.3 172.53-0.93 171.23-2.15 171.03-4.45L171.03-4.45Q169.58-2.05 167.76-0.88 165.93 0.3 163.63 0.3L163.63 0.3Q161.13 0.3 159.71-1.28 158.28-2.85 158.28-5.7L158.28-5.7Q158.28-6.35 158.38-7.18 158.48-8 158.68-8.95L158.68-8.95 162.08-25 169.28-25 165.68-8Q165.58-7.6 165.56-7.28 165.53-6.95 165.53-6.6L165.53-6.6Q165.53-5.6 165.91-5.08 166.28-4.55 167.03-4.55ZM202.28-20.85L202.28-20.85Q202.28-19.15 201.56-18.18 200.83-17.2 199.63-17.2L199.63-17.2Q199.23-17.2 198.78-17.35 198.33-17.5 197.88-17.8L197.88-17.8Q198.18-18.6 198.33-19.35 198.48-20.1 198.48-20.75L198.48-20.75Q198.48-21.75 198.13-22.28 197.78-22.8 197.08-22.8L197.08-22.8Q194.88-22.8 192.78-17.73 190.68-12.65 190.68-8.1L190.68-8.1Q190.68-5.8 191.46-4.85 192.23-3.9 194.28-3.9L194.28-3.9Q196.63-3.9 198.61-4.98 200.58-6.05 203.13-8.95L203.13-8.95 204.83-8.95Q201.93-4.25 198.53-1.98 195.13 0.3 191.08 0.3L191.08 0.3Q187.23 0.3 185.26-1.7 183.28-3.7 183.28-7.65L183.28-7.65Q183.28-10.5 184.16-13.7 185.03-16.9 186.58-19.4L186.58-19.4Q188.43-22.4 191.01-23.93 193.58-25.45 196.73-25.45L196.73-25.45Q199.48-25.45 200.88-24.28 202.28-23.1 202.28-20.85ZM204.48-23L204.88-25 206.53-25 208.03-31.9 215.43-32.9 213.73-25 216.73-25 216.33-23 213.33-23 210.13-8Q210.03-7.55 209.98-7.18 209.93-6.8 209.93-6.4L209.93-6.4Q209.93-5.4 210.4-4.98 210.88-4.55 211.98-4.55L211.98-4.55Q213.38-4.55 214.63-5.78 215.88-7 216.48-8.95L216.48-8.95 218.58-8.95Q216.98-4.4 214.28-2.05 211.58 0.3 208.08 0.3L208.08 0.3Q205.58 0.3 204.15-1.28 202.73-2.85 202.73-5.7L202.73-5.7Q202.73-6.35 202.83-7.18 202.93-8 203.13-8.95L203.13-8.95 206.13-23 204.48-23ZM228.83-31.65L228.83-31.65Q228.83-30 227.65-28.85 226.48-27.7 224.83-27.7L224.83-27.7Q223.18-27.7 222.03-28.85 220.88-30 220.88-31.65L220.88-31.65Q220.88-33.3 222.03-34.48 223.18-35.65 224.83-35.65L224.83-35.65Q226.48-35.65 227.65-34.48 228.83-33.3 228.83-31.65ZM216.08-5.7L216.08-5.7Q216.08-6.35 216.18-7.18 216.28-8 216.48-8.95L216.48-8.95 219.88-25 227.08-25 223.48-8Q223.38-7.55 223.33-7.18 223.28-6.8 223.28-6.4L223.28-6.4Q223.28-5.4 223.75-4.98 224.23-4.55 225.33-4.55L225.33-4.55Q226.73-4.55 227.98-5.78 229.23-7 229.83-8.95L229.83-8.95 231.93-8.95Q230.33-4.4 227.63-2.05 224.93 0.3 221.43 0.3L221.43 0.3Q218.93 0.3 217.5-1.28 216.08-2.85 216.08-5.7ZM245.32-20.75L245.32-20.75Q244.52-20.75 244.02-21.53 243.52-22.3 243.52-23.3L243.52-23.3Q243.52-24.55 244.35-25.28 245.17-26 246.62-26L246.62-26Q248.17-26 248.97-24.85 249.77-23.7 249.77-21.65L249.77-21.65Q249.77-18.25 248.9-14.53 248.02-10.8 246.52-7.75L246.52-7.75Q244.52-3.8 241.72-1.75 238.92 0.3 235.52 0.3L235.52 0.3Q232.57 0.3 230.97-1.23 229.37-2.75 229.37-5.6L229.37-5.6Q229.37-6.15 229.45-6.78 229.52-7.4 229.62-8L229.62-8 233.22-25 240.42-25 236.82-8Q236.72-7.45 236.65-6.98 236.57-6.5 236.57-6.2L236.57-6.2Q236.57-5.4 237-4.98 237.42-4.55 238.27-4.55L238.27-4.55Q240.02-4.55 241.7-6.38 243.37-8.2 244.72-11.55L244.72-11.55Q245.72-13.95 246.32-16.6 246.92-19.25 246.92-21.25L246.92-21.25Q246.82-21.05 246.3-20.9 245.77-20.75 245.32-20.75ZM268.97-20.65L268.97-20.65Q268.97-16.5 265.57-13.43 262.17-10.35 257.47-10.1L257.47-10.1Q257.42-9.25 257.4-8.83 257.37-8.4 257.37-8.1L257.37-8.1Q257.37-5.8 258.15-4.85 258.92-3.9 260.97-3.9L260.97-3.9Q263.32-3.9 265.3-4.98 267.27-6.05 269.82-8.95L269.82-8.95 271.52-8.95Q268.62-4.25 265.22-1.98 261.82 0.3 257.77 0.3L257.77 0.3Q253.92 0.3 251.95-1.7 249.97-3.7 249.97-7.65L249.97-7.65Q249.97-10.5 250.87-13.7 251.77-16.9 253.27-19.4L253.27-19.4Q255.12-22.4 257.7-23.93 260.27-25.45 263.47-25.45L263.47-25.45Q266.22-25.45 267.6-24.28 268.97-23.1 268.97-20.65ZM263.87-22.8L263.87-22.8Q262.17-22.8 260.45-19.78 258.72-16.75 257.87-12.5L257.87-12.5Q260.77-12.7 262.95-15.18 265.12-17.65 265.12-20.75L265.12-20.75Q265.12-21.8 264.82-22.3 264.52-22.8 263.87-22.8Z" opacity="1" transform="matrix(1,0,0,1,0,0)" fill="#ffffff" class="undefined-text-1" data-fill-palette-color="secondary" id="text-1"></path></svg></g></svg></g></svg></g></svg></g><g transform="matrix(1,0,0,1,463.62145519603047,17.85178556314395)"><svg viewBox="0 0 183.32352000000003 183.3271865437309" height="183.3271865437309" width="183.32352000000003"><g><svg version="1.1" xmlns="http://www.w3.org/2000/svg" xmlns:xlink="http://www.w3.org/1999/xlink" x="0" y="0" viewBox="0 0 99.998 100" enable-background="new 0 0 99.998 100" xml:space="preserve" width="183.32352000000003" height="183.3271865437309" class="icon-icon-0" data-fill-palette-color="accent" id="icon-0"><path fill="#ffffff" d="M83.999 71.808l-2.939-0.001 0.004-5.879 2.938 0.001c2.431 0 4.41-1.979 4.41-4.411V49.759c0-2.432-1.979-4.411-4.412-4.411H81.06v-5.879h2.939c5.675 0 10.291 4.617 10.291 10.29v11.759C94.29 67.191 89.674 71.808 83.999 71.808L83.999 71.808z" data-fill-palette-color="accent"></path><path fill="#ffffff" d="M0 92.65C0 96.713 3.262 100 7.294 100h85.409c4.032 0 7.295-3.287 7.295-7.35H0z" data-fill-palette-color="accent"></path><path fill="#ffffff" d="M42.542 10.74c3.299 9.899-5.228 12.54-5.228 12.54l-0.039 0.061c0.086-0.144 2.065-3.614-0.311-10.742C33.665 2.7 42.192 0.06 42.192 0.06L42.231 0C42.144 0.143 40.167 3.615 42.542 10.74z" data-fill-palette-color="accent"></path><path fill="#ffffff" d="M52.787 10.74c3.298 9.899-5.228 12.54-5.228 12.54l-0.039 0.061c0.085-0.144 2.064-3.614-0.311-10.742C43.909 2.7 52.438 0.06 52.438 0.06L52.478 0C52.39 0.143 50.412 3.615 52.787 10.74z" data-fill-palette-color="accent"></path><path fill="#ffffff" d="M63.032 10.74c3.299 9.899-5.227 12.54-5.227 12.54l-0.039 0.061c0.085-0.144 2.064-3.614-0.311-10.742C54.156 2.7 62.684 0.06 62.684 0.06L62.723 0C62.636 0.143 60.658 3.615 63.032 10.74z" data-fill-palette-color="accent"></path><path fill="#ffffff" d="M22.069 29.18v47.038c0 6.5 5.26 11.759 11.759 11.759h32.34c6.499 0 11.759-5.259 11.759-11.759V29.18H22.069zM69.107 74.748c0 0.811-0.659 1.47-1.47 1.47-0.813 0-1.47-0.659-1.47-1.47V36.529c0-0.811 0.656-1.47 1.47-1.47 0.811 0 1.47 0.659 1.47 1.47V74.748z" data-fill-palette-color="accent"></path></svg></g></svg></g></svg></g><defs></defs></svg><rect width="395.5199999999999" height="133.90790344634146" fill="none" stroke="none" visibility="hidden"></rect></g></svg></g></svg>